<svg width="41" height="41" viewBox="0 0 41 41" fill="currentColor" xmlns="http://www.w3.org/2000/svg">
<path fill-rule="evenodd" clip-rule="evenodd" d="M20.5 30.75C26.1609 30.75 30.75 26.1609 30.75 20.5C30.75 14.8391 26.1609 10.25 20.5 10.25C14.8391 10.25 10.25 14.8391 10.25 20.5C10.25 26.1609 14.8391 30.75 20.5 30.75ZM20.5 27.3333C24.2739 27.3333 27.3333 24.2739 27.3333 20.5C27.3333 16.7261 24.2739 13.6667 20.5 13.6667C16.7261 13.6667 13.6667 16.7261 13.6667 20.5C13.6667 24.2739 16.7261 27.3333 20.5 27.3333Z" fill="currentColor"/>
<path d="M30.7503 8.54199C29.8068 8.54199 29.042 9.30685 29.042 10.2503C29.042 11.1938 29.8068 11.9587 30.7503 11.9587C31.6938 11.9587 32.4587 11.1938 32.4587 10.2503C32.4587 9.30685 31.6938 8.54199 30.7503 8.54199Z" fill="currentColor"/>
<path fill-rule="evenodd" clip-rule="evenodd" d="M2.82519 7.30461C1.70801 9.4972 1.70801 12.3675 1.70801 18.108V22.8913C1.70801 28.6319 1.70801 31.5022 2.82519 33.6947C3.80789 35.6234 5.37594 37.1915 7.30461 38.1741C9.4972 39.2913 12.3675 39.2913 18.108 39.2913H22.8913C28.6319 39.2913 31.5022 39.2913 33.6947 38.1741C35.6234 37.1915 37.1915 35.6234 38.1741 33.6947C39.2913 31.5022 39.2913 28.6319 39.2913 22.8913V18.108C39.2913 12.3675 39.2913 9.4972 38.1741 7.30461C37.1915 5.37594 35.6234 3.80789 33.6947 2.82519C31.5022 1.70801 28.6319 1.70801 22.8913 1.70801H18.108C12.3675 1.70801 9.4972 1.70801 7.30461 2.82519C5.37594 3.80789 3.80789 5.37594 2.82519 7.30461ZM22.8913 5.12467H18.108C15.1814 5.12467 13.1919 5.12734 11.6541 5.25297C10.1561 5.37536 9.39011 5.59718 8.85574 5.86946C7.56997 6.5246 6.5246 7.56997 5.86946 8.85574C5.59718 9.39011 5.37536 10.1561 5.25297 11.6541C5.12734 13.1919 5.12467 15.1814 5.12467 18.108V22.8913C5.12467 25.8181 5.12734 27.8074 5.25297 29.3453C5.37536 30.8433 5.59718 31.6093 5.86946 32.1437C6.5246 33.4294 7.56997 34.4747 8.85574 35.1298C9.39011 35.4021 10.1561 35.6241 11.6541 35.7464C13.1919 35.8719 15.1814 35.8747 18.108 35.8747H22.8913C25.8181 35.8747 27.8074 35.8719 29.3453 35.7464C30.8433 35.6241 31.6093 35.4021 32.1437 35.1298C33.4294 34.4747 34.4747 33.4294 35.1298 32.1437C35.4021 31.6093 35.6241 30.8433 35.7464 29.3453C35.8719 27.8074 35.8747 25.8181 35.8747 22.8913V18.108C35.8747 15.1814 35.8719 13.1919 35.7464 11.6541C35.6241 10.1561 35.4021 9.39011 35.1298 8.85574C34.4747 7.56997 33.4294 6.5246 32.1437 5.86946C31.6093 5.59718 30.8433 5.37536 29.3453 5.25297C27.8074 5.12734 25.8181 5.12467 22.8913 5.12467Z" fill="currentColor"/>
</svg>
