<svg width="1019" height="691" viewBox="0 0 1019 691" fill="none" xmlns="http://www.w3.org/2000/svg">
<g clip-path="url(#clip0_625_78)">
<path d="M169.021 544.353C173.6 544.353 177.941 545.16 182.051 546.775L183.185 547.235L180.761 553.856L179.597 553.457C175.631 552.129 172.045 551.465 168.837 551.465C166.303 551.465 163.956 551.879 161.8 552.707C159.644 553.533 157.857 554.644 156.436 556.033C155.016 557.423 153.912 559.017 153.125 560.815C152.339 562.615 151.947 564.493 151.947 566.456C151.947 568.479 152.368 570.407 153.217 572.235C154.065 574.064 155.251 575.668 156.775 577.048C158.295 578.427 160.212 579.521 162.521 580.328C164.832 581.137 167.355 581.539 170.095 581.539C173.447 581.539 176.797 580.947 180.149 579.761L181.284 579.364L183.797 585.495L182.663 585.984C178.228 587.885 173.548 588.836 168.623 588.836C164.8 588.836 161.332 588.255 158.215 587.089C155.097 585.923 152.527 584.324 150.504 582.291C148.48 580.256 146.923 577.891 145.829 575.195C144.735 572.496 144.188 569.593 144.188 566.487C144.188 563.34 144.751 560.417 145.876 557.719C146.999 555.021 148.603 552.681 150.688 550.699C152.772 548.716 155.389 547.163 158.537 546.039C161.683 544.916 165.177 544.353 169.021 544.353Z" fill="currentColor"/>
<path d="M253.447 551.817C252.027 551.46 250.581 551.281 249.111 551.281C247.639 551.281 246.207 551.46 244.816 551.817C243.428 552.176 242.095 552.737 240.816 553.504C239.54 554.269 238.42 555.216 237.459 556.34C236.499 557.464 235.732 558.849 235.16 560.493C234.587 562.14 234.303 563.953 234.303 565.935C234.303 570.656 235.764 574.448 238.685 577.309C241.608 580.171 245.256 581.6 249.631 581.6C251.449 581.6 253.212 581.305 254.917 580.712C256.625 580.119 258.204 579.24 259.655 578.076C261.105 576.911 262.272 575.327 263.149 573.323C264.029 571.32 264.467 569.041 264.467 566.487C264.467 564.403 264.163 562.496 263.548 560.769C262.936 559.043 262.123 557.607 261.111 556.463C260.1 555.317 258.925 554.347 257.587 553.549C256.245 552.753 254.868 552.176 253.447 551.817ZM249.415 544.2C253.849 544.2 257.795 545.068 261.248 546.805C264.704 548.543 267.423 551.072 269.404 554.393C271.387 557.713 272.379 561.572 272.379 565.967C272.379 570.423 271.407 574.371 269.464 577.815C267.524 581.259 264.795 583.931 261.28 585.832C257.764 587.732 253.728 588.683 249.171 588.683C246.165 588.683 243.316 588.217 240.617 587.288C237.92 586.359 235.504 584.999 233.365 583.209C231.229 581.423 229.535 579.097 228.277 576.236C227.021 573.375 226.392 570.145 226.392 566.548C226.392 562.072 227.373 558.133 229.335 554.731C231.297 551.327 234.016 548.721 237.491 546.913C240.964 545.104 244.941 544.2 249.415 544.2Z" fill="currentColor"/>
<path d="M319.939 544.659H328.462L352.772 578.137V544.659H360.499V588.223H351.884L327.666 554.684V588.223H319.939V544.659Z" fill="currentColor"/>
<path d="M404.073 544.659H443.439V551.771H427.62V588.223H419.893V551.771H404.073V544.659Z" fill="currentColor"/>
<path d="M487.014 588.223V544.659H517.579V551.771H494.772V562.225H515.895V569.339H494.772V581.111H517.579V588.223H487.014Z" fill="currentColor"/>
<path d="M565.907 544.659H574.431L598.74 578.137V544.659H606.467V588.223H597.852L573.633 554.684V588.223H565.907V544.659Z" fill="currentColor"/>
<path d="M650.043 544.659H689.407V551.771H673.587V588.223H665.86V551.771H650.043V544.659Z" fill="currentColor"/>
<path d="M800.595 551.771H792.655V581.111H798.264C799.674 581.111 800.84 581.089 801.759 581.049C802.678 581.008 803.884 580.865 805.376 580.62C806.868 580.375 808.139 580.033 809.194 579.592C810.246 579.153 811.34 578.489 812.472 577.6C813.608 576.711 814.554 575.633 815.308 574.367C816.699 572.035 817.395 569.308 817.395 566.18C817.395 564.381 817.144 562.727 816.642 561.213C816.142 559.701 815.478 558.429 814.65 557.397C813.822 556.365 812.85 555.461 811.738 554.684C810.623 553.908 809.494 553.305 808.35 552.875C807.204 552.445 806.03 552.149 804.824 551.985C803.803 551.844 802.392 551.771 800.595 551.771ZM800.379 544.659C803.119 544.659 805.642 544.873 807.952 545.304C810.262 545.732 812.254 546.315 813.928 547.051C815.606 547.787 817.098 548.675 818.404 549.717C819.712 550.759 820.786 551.873 821.623 553.059C822.462 554.245 823.152 555.533 823.694 556.923C824.235 558.312 824.614 559.676 824.83 561.015C825.043 562.353 825.15 563.739 825.15 565.168C825.15 567.049 824.996 568.864 824.691 570.611C824.384 572.359 823.842 574.136 823.066 575.944C822.287 577.755 821.292 579.377 820.076 580.819C818.86 582.26 817.278 583.559 815.324 584.712C813.374 585.867 811.139 586.72 808.626 587.272C807.338 587.559 805.907 587.779 804.335 587.931C802.759 588.085 801.467 588.172 800.456 588.192C799.444 588.212 798.03 588.223 796.21 588.223H784.928V544.659H800.379Z" fill="currentColor"/>
<path d="M898.232 551.817C896.811 551.46 895.365 551.281 893.893 551.281C892.423 551.281 890.993 551.46 889.603 551.817C888.212 552.176 886.879 552.737 885.603 553.504C884.324 554.269 883.204 555.216 882.245 556.34C881.284 557.464 880.516 558.849 879.947 560.493C879.373 562.14 879.087 563.953 879.087 565.935C879.087 570.656 880.548 574.448 883.469 577.309C886.393 580.171 890.043 581.6 894.415 581.6C896.235 581.6 897.999 581.305 899.704 580.712C901.409 580.119 902.988 579.24 904.441 578.076C905.892 576.911 907.056 575.327 907.936 573.323C908.813 571.32 909.253 569.041 909.253 566.487C909.253 564.403 908.947 562.496 908.335 560.769C907.72 559.043 906.907 557.607 905.896 556.463C904.884 555.317 903.709 554.347 902.371 553.549C901.032 552.753 899.652 552.176 898.232 551.817ZM894.201 544.2C898.636 544.2 902.581 545.068 906.035 546.805C909.488 548.543 912.207 551.072 914.188 554.393C916.171 557.713 917.163 561.572 917.163 565.967C917.163 570.423 916.191 574.371 914.251 577.815C912.308 581.259 909.579 583.931 906.065 585.832C902.551 587.732 898.513 588.683 893.956 588.683C890.951 588.683 888.1 588.217 885.401 587.288C882.704 586.359 880.287 584.999 878.152 583.209C876.016 581.423 874.319 579.097 873.063 576.236C871.805 573.375 871.177 570.145 871.177 566.548C871.177 562.072 872.16 558.133 874.12 554.731C876.081 551.327 878.8 548.721 882.275 546.913C885.751 545.104 889.725 544.2 894.201 544.2Z" fill="currentColor"/>
<path d="M907.739 236.103C906 234.771 903.943 234.069 901.788 234.069C900.916 234.069 900.039 234.186 899.18 234.419L773.548 271.738C769.209 272.913 766.179 276.833 766.179 281.27V368.279C766.179 372.717 769.172 376.627 773.453 377.787L773.625 377.835L899.352 415.181C902.199 415.954 905.281 415.326 907.739 413.446C910.195 411.567 911.604 408.717 911.604 405.625V243.925C911.604 240.833 910.195 237.982 907.739 236.103Z" fill="currentColor"/>
<path d="M659.607 361.075C659.368 383.43 648.971 393.973 626.888 394.251C613.717 394.417 380.541 394.463 333.932 394.471L326.601 394.474L326.587 361.209C362.257 361.219 404.765 361.229 441.101 361.238H442.867C488.667 361.25 529.729 361.258 548.601 361.266L538.225 301.654C537.233 295.955 532.319 291.818 526.537 291.818H505.335C459.712 291.819 381.808 291.822 326.56 291.822L326.545 257.897H333.881C433.827 257.894 610.623 257.893 620.772 257.898C649.399 257.913 659.572 267.978 659.649 296.362L659.68 306.867C659.737 324.627 659.797 342.99 659.607 361.075ZM731.276 286.145C731.063 231.752 688.144 188.879 633.565 188.546C627.817 188.511 266.161 188.476 262.515 188.476C259.529 188.476 257.095 190.906 257.087 193.893L256.825 291.625C232.992 290.135 224.311 279.549 224.239 253.358L224.207 242.812C224.149 225.229 224.091 207.046 224.283 188.935C224.52 166.581 234.917 156.038 257.001 155.759C270.445 155.591 455.08 155.548 518.08 155.537L506.257 92.8702C505.52 88.9555 502.097 86.1048 498.12 86.0915C468.408 85.9941 317.512 85.5048 264.619 85.5048C255.084 85.5048 249.495 85.5208 247.531 85.5515C205.361 86.2008 166.583 116.032 157.325 154.94V154.938C154.059 168.675 152.384 206.989 152.611 262.823L152.613 263.573C152.825 317.966 195.744 360.838 250.323 361.173C250.791 361.175 252.999 361.178 256.639 361.182L256.549 394.475H256.313V456.615C256.313 460.629 259.575 463.901 263.583 463.909C397.329 464.201 623.608 464.669 636.355 464.459C678.525 463.811 717.305 433.979 726.563 395.071C729.832 381.333 731.507 342.913 731.279 286.885L731.276 286.145Z" fill="currentColor"/>
</g>
<defs>
<clipPath id="clip0_625_78">
<rect width="1019" height="691" fill="currentColor"/>
</clipPath>
</defs>
</svg>
