<svg width="17" height="17" viewBox="0 0 17 17" fill="none" xmlns="http://www.w3.org/2000/svg">
<mask id="path-1-inside-1_171_206" fill="white">
<path fill-rule="evenodd" clip-rule="evenodd" d="M10.2895 0H6.71052V4.17982L3.75495 1.22426L1.22425 3.75496L4.17986 6.71056H0V10.2895H4.17981L1.22423 13.2451L3.75493 15.7758L6.71052 12.8202V17H10.2895V12.8202L13.2451 15.7758L15.7758 13.2451L12.8202 10.2895H17V6.71056H12.8202L15.7757 3.75497L13.245 1.22428L10.2895 4.17985V0Z"/>
</mask>
<path d="M6.71052 0V-1.08511H5.62541V0H6.71052ZM10.2895 0H11.3746V-1.08511H10.2895V0ZM6.71052 4.17982L5.94323 4.94711L7.79563 6.7995V4.17982H6.71052ZM3.75495 1.22426L4.52224 0.456971L3.75495 -0.310315L2.98767 0.456971L3.75495 1.22426ZM1.22425 3.75496L0.456969 2.98767L-0.310317 3.75496L0.456969 4.52224L1.22425 3.75496ZM4.17986 6.71056V7.79567H6.79954L4.94715 5.94328L4.17986 6.71056ZM0 6.71056V5.62546H-1.08511V6.71056H0ZM0 10.2895H-1.08511V11.3746H0V10.2895ZM4.17981 10.2895L4.9471 11.0568L6.79949 9.2044H4.17981V10.2895ZM1.22423 13.2451L0.456945 12.4778L-0.310342 13.2451L0.456945 14.0124L1.22423 13.2451ZM3.75493 15.7758L2.98764 16.5431L3.75493 17.3104L4.52221 16.5431L3.75493 15.7758ZM6.71052 12.8202H7.79563V10.2005L5.94323 12.0529L6.71052 12.8202ZM6.71052 17H5.62541V18.0851H6.71052V17ZM10.2895 17V18.0851H11.3746V17H10.2895ZM10.2895 12.8202L11.0568 12.0529L9.20436 10.2005V12.8202H10.2895ZM13.2451 15.7758L12.4778 16.5431L13.2451 17.3103L14.0124 16.5431L13.2451 15.7758ZM15.7758 13.2451L16.5431 14.0124L17.3103 13.2451L16.5431 12.4778L15.7758 13.2451ZM12.8202 10.2895V9.2044H10.2005L12.0529 11.0568L12.8202 10.2895ZM17 10.2895V11.3746H18.0851V10.2895H17ZM17 6.71056H18.0851V5.62546H17V6.71056ZM12.8202 6.71056L12.0529 5.94328L10.2005 7.79567H12.8202V6.71056ZM15.7757 3.75497L16.543 4.52226L17.3103 3.75497L16.543 2.98769L15.7757 3.75497ZM13.245 1.22428L14.0123 0.456991L13.245 -0.310295L12.4778 0.456991L13.245 1.22428ZM10.2895 4.17985H9.20436V6.79953L11.0568 4.94714L10.2895 4.17985ZM6.71052 1.08511H10.2895V-1.08511H6.71052V1.08511ZM7.79563 4.17982V0H5.62541V4.17982H7.79563ZM2.98767 1.99154L5.94323 4.94711L7.47781 3.41254L4.52224 0.456971L2.98767 1.99154ZM1.99154 4.52224L4.52224 1.99154L2.98767 0.456971L0.456969 2.98767L1.99154 4.52224ZM4.94715 5.94328L1.99154 2.98767L0.456969 4.52224L3.41258 7.47785L4.94715 5.94328ZM0 7.79567H4.17986V5.62546H0V7.79567ZM1.08511 10.2895V6.71056H-1.08511V10.2895H1.08511ZM4.17981 9.2044H0V11.3746H4.17981V9.2044ZM1.99152 14.0124L4.9471 11.0568L3.41252 9.52222L0.456945 12.4778L1.99152 14.0124ZM4.52221 15.0085L1.99152 12.4778L0.456945 14.0124L2.98764 16.5431L4.52221 15.0085ZM5.94323 12.0529L2.98764 15.0085L4.52221 16.5431L7.47781 13.5875L5.94323 12.0529ZM7.79563 17V12.8202H5.62541V17H7.79563ZM10.2895 15.9149H6.71052V18.0851H10.2895V15.9149ZM9.20436 12.8202V17H11.3746V12.8202H9.20436ZM14.0124 15.0085L11.0568 12.0529L9.52218 13.5875L12.4778 16.5431L14.0124 15.0085ZM15.0085 12.4778L12.4778 15.0085L14.0124 16.5431L16.5431 14.0124L15.0085 12.4778ZM12.0529 11.0568L15.0085 14.0124L16.5431 12.4778L13.5875 9.52222L12.0529 11.0568ZM17 9.2044H12.8202V11.3746H17V9.2044ZM15.9149 6.71056V10.2895H18.0851V6.71056H15.9149ZM12.8202 7.79567H17V5.62546H12.8202V7.79567ZM15.0085 2.98769L12.0529 5.94328L13.5874 7.47785L16.543 4.52226L15.0085 2.98769ZM12.4778 1.99156L15.0085 4.52226L16.543 2.98769L14.0123 0.456991L12.4778 1.99156ZM11.0568 4.94714L14.0123 1.99156L12.4778 0.456991L9.52218 3.41257L11.0568 4.94714ZM9.20436 0V4.17985H11.3746V0H9.20436Z" fill="#319aaa" mask="url(#path-1-inside-1_171_206)"/>
</svg>
