<svg width="50" height="38" viewBox="0 0 50 38" fill="none" xmlns="http://www.w3.org/2000/svg">
<path d="M48.0035 32.4047C47.0895 34.4594 44.7316 36.3203 42.5176 36.7312C42.291 36.7734 36.8801 37.75 25.016 37.75H24.9848C13.1223 37.75 7.70664 36.7734 7.48164 36.7328C5.26758 36.3203 2.9082 34.4594 1.99258 32.4031C1.91133 32.2203 0.00195312 27.8234 0.00195312 19C0.00195312 10.1766 1.91133 5.77813 1.99258 5.59531C2.9082 3.53906 5.26758 1.67969 7.48164 1.26875C7.70664 1.22656 13.1223 0.25 24.9848 0.25C36.8801 0.25 42.291 1.22656 42.516 1.26719C44.7316 1.67969 47.0895 3.53906 48.0051 5.59375C48.0863 5.77813 50.0004 10.1766 50.0004 19C50.0004 27.8234 48.0863 32.2203 48.0035 32.4047ZM45.1457 6.85938C44.6582 5.76406 43.1301 4.56094 41.9457 4.34063C41.8957 4.33125 36.541 3.375 25.016 3.375C13.4613 3.375 8.10195 4.33125 8.05039 4.34063C6.86602 4.56094 5.33945 5.76406 4.85039 6.86563C4.83477 6.89844 3.12852 10.9203 3.12852 19C3.12852 27.0781 4.83477 31.1 4.85352 31.1406C5.33945 32.2359 6.86602 33.4391 8.05195 33.6594C8.10195 33.6687 13.4613 34.625 24.9848 34.625H25.016C36.541 34.625 41.8957 33.6687 41.9473 33.6594C43.1316 33.4391 44.6582 32.2359 45.1473 31.1344C45.1629 31.1 46.8723 27.0781 46.8723 19C46.8723 10.9219 45.1629 6.89844 45.1457 6.85938ZM21.1582 28.1344C20.9051 28.2953 20.6145 28.375 20.3254 28.375C20.066 28.375 19.8066 28.3109 19.5707 28.1797C19.0723 27.9047 18.7629 27.3812 18.7629 26.8125V11.1875C18.7629 10.6203 19.0691 10.0984 19.5645 9.82344C20.0598 9.54687 20.6676 9.55938 21.1473 9.85781L33.677 17.6016C34.1348 17.8844 34.416 18.3844 34.4176 18.9234C34.4191 19.4625 34.1441 19.9656 33.6879 20.2516L21.1582 28.1344ZM21.8895 13.9906V23.9828L29.902 18.9422L21.8895 13.9906Z" fill="currentColor"/>
</svg>
