<svg width="369" height="356" viewBox="0 0 369 356" fill="none" xmlns="http://www.w3.org/2000/svg">
<g filter="url(#filter0_f_170_153)">
<path d="M10.5852 239.727H33.3409L57.375 298.364H58.3977L82.4318 239.727H105.188V327H87.2898V270.196H86.5653L63.9801 326.574H51.7926L29.2074 269.983H28.483V327H10.5852V239.727ZM164.696 239.727H183.148V296.403C183.148 302.767 181.628 308.335 178.588 313.108C175.577 317.881 171.358 321.602 165.932 324.273C160.506 326.915 154.185 328.236 146.969 328.236C139.725 328.236 133.389 326.915 127.963 324.273C122.537 321.602 118.318 317.881 115.307 313.108C112.296 308.335 110.79 302.767 110.79 296.403V239.727H129.242V294.827C129.242 298.151 129.966 301.105 131.415 303.69C132.892 306.276 134.966 308.307 137.637 309.784C140.307 311.261 143.418 312 146.969 312C150.548 312 153.659 311.261 156.301 309.784C158.972 308.307 161.031 306.276 162.48 303.69C163.958 301.105 164.696 298.151 164.696 294.827V239.727ZM236.073 264.827C235.732 261.389 234.269 258.719 231.684 256.815C229.098 254.912 225.59 253.96 221.158 253.96C218.147 253.96 215.604 254.386 213.53 255.239C211.456 256.062 209.865 257.213 208.757 258.69C207.678 260.168 207.138 261.844 207.138 263.719C207.081 265.281 207.408 266.645 208.118 267.81C208.857 268.974 209.865 269.983 211.144 270.835C212.422 271.659 213.899 272.384 215.576 273.009C217.252 273.605 219.041 274.116 220.945 274.543L228.786 276.418C232.593 277.27 236.087 278.406 239.269 279.827C242.451 281.247 245.206 282.994 247.536 285.068C249.865 287.142 251.669 289.585 252.948 292.398C254.255 295.21 254.922 298.435 254.951 302.071C254.922 307.412 253.559 312.043 250.86 315.963C248.189 319.855 244.326 322.881 239.269 325.04C234.24 327.17 228.175 328.236 221.073 328.236C214.027 328.236 207.891 327.156 202.664 324.997C197.465 322.838 193.402 319.642 190.476 315.409C187.578 311.148 186.059 305.878 185.916 299.599H203.772C203.97 302.526 204.809 304.969 206.286 306.929C207.791 308.861 209.794 310.324 212.294 311.318C214.823 312.284 217.678 312.767 220.86 312.767C223.985 312.767 226.698 312.312 228.999 311.403C231.328 310.494 233.132 309.23 234.411 307.611C235.689 305.991 236.328 304.131 236.328 302.028C236.328 300.068 235.746 298.42 234.581 297.085C233.445 295.75 231.769 294.614 229.553 293.676C227.365 292.739 224.681 291.886 221.499 291.119L211.996 288.733C204.638 286.943 198.828 284.145 194.567 280.338C190.306 276.531 188.189 271.403 188.218 264.955C188.189 259.67 189.595 255.054 192.436 251.105C195.306 247.156 199.24 244.074 204.24 241.858C209.24 239.642 214.922 238.534 221.286 238.534C227.763 238.534 233.416 239.642 238.246 241.858C243.104 244.074 246.882 247.156 249.581 251.105C252.28 255.054 253.672 259.628 253.757 264.827H236.073ZM276.213 239.727V327H257.762V239.727H276.213ZM358.797 270.281H340.133C339.792 267.866 339.096 265.722 338.045 263.847C336.993 261.943 335.644 260.324 333.996 258.989C332.349 257.653 330.445 256.631 328.286 255.92C326.155 255.21 323.84 254.855 321.34 254.855C316.823 254.855 312.888 255.977 309.536 258.222C306.184 260.437 303.584 263.676 301.738 267.938C299.891 272.17 298.968 277.312 298.968 283.364C298.968 289.585 299.891 294.812 301.738 299.045C303.613 303.278 306.226 306.474 309.579 308.634C312.931 310.793 316.809 311.872 321.212 311.872C323.684 311.872 325.971 311.545 328.073 310.892C330.204 310.239 332.093 309.287 333.741 308.037C335.388 306.759 336.752 305.21 337.832 303.392C338.939 301.574 339.707 299.5 340.133 297.17L358.797 297.256C358.314 301.261 357.107 305.125 355.175 308.847C353.272 312.54 350.701 315.849 347.462 318.776C344.252 321.673 340.417 323.974 335.957 325.679C331.525 327.355 326.511 328.193 320.914 328.193C313.13 328.193 306.17 326.432 300.033 322.909C293.925 319.386 289.096 314.287 285.545 307.611C282.022 300.935 280.261 292.852 280.261 283.364C280.261 273.847 282.05 265.75 285.63 259.074C289.209 252.398 294.067 247.312 300.204 243.818C306.34 240.295 313.243 238.534 320.914 238.534C325.971 238.534 330.658 239.244 334.976 240.665C339.323 242.085 343.172 244.159 346.525 246.886C349.877 249.585 352.604 252.895 354.707 256.815C356.837 260.736 358.201 265.224 358.797 270.281Z" fill="#B4B4B4"/>
</g>
<g filter="url(#filter1_f_170_153)">
<path d="M28.5852 116V28.7273H47.0369V100.787H84.4517V116H28.5852ZM105.523 28.7273V116H87.0712V28.7273H105.523ZM168.973 56.9375C168.377 54.8636 167.539 53.0312 166.459 51.4403C165.38 49.821 164.059 48.4574 162.496 47.3494C160.962 46.2131 159.201 45.3466 157.212 44.75C155.252 44.1534 153.078 43.8551 150.692 43.8551C146.232 43.8551 142.311 44.9631 138.931 47.179C135.578 49.3949 132.965 52.6193 131.09 56.8523C129.215 61.0568 128.277 66.1989 128.277 72.2784C128.277 78.358 129.201 83.5284 131.047 87.7898C132.894 92.0511 135.507 95.304 138.888 97.5483C142.269 99.7642 146.26 100.872 150.863 100.872C155.039 100.872 158.604 100.134 161.559 98.6562C164.541 97.1506 166.814 95.0341 168.377 92.3068C169.968 89.5795 170.763 86.3551 170.763 82.6335L174.513 83.1875H152.013V69.2955H188.533V80.2898C188.533 87.9602 186.914 94.5511 183.675 100.062C180.436 105.545 175.976 109.778 170.294 112.761C164.613 115.716 158.107 117.193 150.777 117.193C142.595 117.193 135.408 115.389 129.215 111.781C123.022 108.145 118.192 102.989 114.726 96.3125C111.289 89.608 109.57 81.6534 109.57 72.4489C109.57 65.375 110.593 59.0682 112.638 53.5284C114.712 47.9602 117.61 43.2443 121.331 39.3807C125.053 35.517 129.385 32.5767 134.328 30.5597C139.272 28.5426 144.627 27.5341 150.394 27.5341C155.337 27.5341 159.939 28.2585 164.201 29.7074C168.462 31.1278 172.24 33.1449 175.536 35.7585C178.86 38.3722 181.573 41.483 183.675 45.0909C185.777 48.6705 187.127 52.6193 187.723 56.9375H168.973ZM192.793 116V28.7273H211.245V64.7358H248.702V28.7273H267.111V116H248.702V79.9489H211.245V116H192.793ZM269.4 43.9403V28.7273H341.077V43.9403H314.358V116H296.119V43.9403H269.4Z" fill="#B4B4B4"/>
</g>
<path d="M36.2841 136.727L58.9972 205.42H59.892L82.5625 136.727H99.9489L69.1818 224H49.6648L18.9403 136.727H36.2841ZM117.654 136.727V224H101.844V136.727H117.654ZM154.747 224H125.174V136.727H155.344C164.009 136.727 171.452 138.474 177.674 141.969C183.924 145.435 188.725 150.42 192.077 156.926C195.429 163.432 197.105 171.216 197.105 180.278C197.105 189.369 195.415 197.182 192.034 203.716C188.682 210.25 183.838 215.264 177.503 218.759C171.196 222.253 163.611 224 154.747 224ZM140.983 210.321H153.98C160.06 210.321 165.131 209.213 169.193 206.997C173.256 204.753 176.31 201.415 178.355 196.983C180.401 192.523 181.424 186.955 181.424 180.278C181.424 173.602 180.401 168.062 178.355 163.659C176.31 159.227 173.284 155.918 169.279 153.73C165.301 151.514 160.358 150.406 154.449 150.406H140.983V210.321ZM202.527 224V136.727H259.288V149.98H218.336V173.673H256.348V186.926H218.336V210.747H259.629V224H202.527ZM343.8 180.364C343.8 189.767 342.039 197.821 338.516 204.526C335.022 211.202 330.249 216.315 324.198 219.866C318.175 223.418 311.343 225.193 303.701 225.193C296.059 225.193 289.212 223.418 283.161 219.866C277.138 216.287 272.366 211.159 268.843 204.483C265.349 197.778 263.601 189.739 263.601 180.364C263.601 170.96 265.349 162.92 268.843 156.244C272.366 149.54 277.138 144.412 283.161 140.861C289.212 137.31 296.059 135.534 303.701 135.534C311.343 135.534 318.175 137.31 324.198 140.861C330.249 144.412 335.022 149.54 338.516 156.244C342.039 162.92 343.8 170.96 343.8 180.364ZM327.905 180.364C327.905 173.744 326.868 168.162 324.795 163.616C322.749 159.043 319.908 155.591 316.272 153.261C312.636 150.903 308.445 149.724 303.701 149.724C298.957 149.724 294.766 150.903 291.13 153.261C287.493 155.591 284.638 159.043 282.564 163.616C280.519 168.162 279.496 173.744 279.496 180.364C279.496 186.983 280.519 192.58 282.564 197.153C284.638 201.699 287.493 205.151 291.13 207.509C294.766 209.838 298.957 211.003 303.701 211.003C308.445 211.003 312.636 209.838 316.272 207.509C319.908 205.151 322.749 201.699 324.795 197.153C326.868 192.58 327.905 186.983 327.905 180.364Z" fill="#F1F1F1"/>
<defs>
<filter id="filter0_f_170_153" x="0.585449" y="228.534" width="368.212" height="109.701" filterUnits="userSpaceOnUse" color-interpolation-filters="sRGB">
<feFlood flood-opacity="0" result="BackgroundImageFix"/>
<feBlend mode="normal" in="SourceGraphic" in2="BackgroundImageFix" result="shape"/>
<feGaussianBlur stdDeviation="5" result="effect1_foregroundBlur_170_153"/>
</filter>
<filter id="filter1_f_170_153" x="18.5854" y="17.5342" width="332.491" height="109.659" filterUnits="userSpaceOnUse" color-interpolation-filters="sRGB">
<feFlood flood-opacity="0" result="BackgroundImageFix"/>
<feBlend mode="normal" in="SourceGraphic" in2="BackgroundImageFix" result="shape"/>
<feGaussianBlur stdDeviation="5" result="effect1_foregroundBlur_170_153"/>
</filter>
</defs>
</svg>
