<svg width="873" height="164" viewBox="0 0 873 164" fill="none" xmlns="http://www.w3.org/2000/svg">
<path d="M42.7305 164C28.8387 164 18.2 160.583 10.8145 153.75C3.60484 146.917 0 137.274 0 124.822V39.1778C0 26.7259 3.60484 17.0833 10.8145 10.25C18.2 3.41667 28.8387 0 42.7305 0C56.6223 0 67.1731 3.41667 74.3828 10.25C81.7683 17.0833 85.461 26.7259 85.461 39.1778V56.0333H58.0291V37.5833C58.0291 27.713 53.1933 22.7778 43.5218 22.7778C33.8503 22.7778 29.0146 27.713 29.0146 37.5833V126.644C29.0146 136.363 33.8503 141.222 43.5218 141.222C53.1933 141.222 58.0291 136.363 58.0291 126.644V102.272H85.461V124.822C85.461 137.274 81.7683 146.917 74.3828 153.75C67.1731 160.583 56.6223 164 42.7305 164Z" fill="currentColor"/>
<path d="M139.999 164C125.756 164 114.853 160.507 107.292 153.522C99.7306 146.537 95.95 136.667 95.95 123.911V40.0889C95.95 27.3333 99.7306 17.463 107.292 10.4778C114.853 3.49259 125.756 0 139.999 0C154.243 0 165.145 3.49259 172.707 10.4778C180.268 17.463 184.049 27.3333 184.049 40.0889V123.911C184.049 136.667 180.268 146.537 172.707 153.522C165.145 160.507 154.243 164 139.999 164ZM139.999 141.222C150.023 141.222 155.034 135.983 155.034 125.506V38.4944C155.034 28.0167 150.023 22.7778 139.999 22.7778C129.976 22.7778 124.965 28.0167 124.965 38.4944V125.506C124.965 135.983 129.976 141.222 139.999 141.222Z" fill="currentColor"/>
<path d="M198.395 2.27778H234.795L263.019 97.7167H263.546V2.27778H289.395V161.722H259.59L224.772 45.3278H224.245V161.722H198.395V2.27778Z" fill="currentColor"/>
<path d="M328.369 25.0556H298.036V2.27778H387.717V25.0556H357.384V161.722H328.369V25.0556Z" fill="currentColor"/>
<path d="M396.49 2.27778H475.62V25.0556H425.504V67.1945H465.333V89.9722H425.504V138.944H475.62V161.722H396.49V2.27778Z" fill="currentColor"/>
<path d="M487.036 2.27778H523.437L551.66 97.7167H552.187V2.27778H578.037V161.722H548.231L513.413 45.3278H512.886V161.722H487.036V2.27778Z" fill="currentColor"/>
<path d="M617.01 25.0556H586.677V2.27778H676.358V25.0556H646.025V161.722H617.01V25.0556Z" fill="currentColor"/>
<path d="M685.131 2.27778H729.444C743.863 2.27778 754.678 5.61852 761.888 12.3C769.097 18.9815 772.702 28.7759 772.702 41.6833V122.317C772.702 135.224 769.097 145.019 761.888 151.7C754.678 158.382 743.863 161.722 729.444 161.722H685.131V2.27778ZM728.916 138.944C733.664 138.944 737.269 137.73 739.731 135.3C742.369 132.87 743.687 128.922 743.687 123.456V40.5444C743.687 35.0778 742.369 31.1296 739.731 28.7C737.269 26.2704 733.664 25.0556 728.916 25.0556H714.145V138.944H728.916Z" fill="currentColor"/>
<path d="M828.951 164C814.707 164 803.805 160.507 796.243 153.522C788.682 146.537 784.901 136.667 784.901 123.911V40.0889C784.901 27.3333 788.682 17.463 796.243 10.4778C803.805 3.49259 814.707 0 828.951 0C843.194 0 854.097 3.49259 861.658 10.4778C869.219 17.463 873 27.3333 873 40.0889V123.911C873 136.667 869.219 146.537 861.658 153.522C854.097 160.507 843.194 164 828.951 164ZM828.951 141.222C838.974 141.222 843.985 135.983 843.985 125.506V38.4944C843.985 28.0167 838.974 22.7778 828.951 22.7778C818.927 22.7778 813.916 28.0167 813.916 38.4944V125.506C813.916 135.983 818.927 141.222 828.951 141.222Z" fill="currentColor"/>
</svg>
