<svg width="1468" height="202" viewBox="0 0 1468 202" fill="none" xmlns="http://www.w3.org/2000/svg">
<path d="M83.4347 145.671C81.9635 152.464 80.0837 157.146 77.7902 159.713C75.4913 162.286 71.9598 163.569 67.1885 163.569C58.5561 163.569 54.246 160.266 54.246 153.655C54.246 151.088 54.7019 147.874 55.6225 144.018L75.174 60.3062C77.1922 51.4949 79.2088 45.7119 81.2323 42.9571C83.2488 40.2042 87.0153 38.8276 92.5212 38.8276C100.782 38.8276 104.913 42.0418 104.913 48.4648C104.913 51.0389 104.543 54.0672 103.812 57.5532L99.6808 75.4528H153.378L157.509 57.0026C158.791 51.8648 159.435 46.4483 159.435 40.7565C159.435 13.5879 138.233 8.57282e-06 95.8266 8.57282e-06C72.8751 8.57282e-06 55.8996 4.40656 44.8824 13.2196C33.8687 22.0309 25.6992 38.0017 20.3756 61.1338L5.23068 126.118C1.74123 140.99 0 151.914 0 158.887C0 173.578 5.04653 184.406 15.1431 191.381C25.238 198.357 40.8441 201.846 61.9562 201.846C88.5724 201.846 107.849 195.788 119.783 183.671C128.41 175.044 135.108 159.438 139.885 136.858L142.089 126.395H87.8394L83.4347 145.671Z" fill="currentColor"/>
<path d="M414.42 128.598L403.959 3.85774H353.565L308.681 198.266H354.391L381.928 74.9005L391.841 198.266H443.335L488.219 3.85774H442.509L414.42 128.598Z" fill="currentColor"/>
<path d="M642.7 3.85774H505.293L496.757 41.0318H538.061L501.713 198.266H556.511L592.859 41.0318H634.164L642.7 3.85774Z" fill="currentColor"/>
<path d="M735.774 118.135L744.31 80.9588H696.671L705.759 41.5807H757.252L766.064 3.85774H659.772L614.888 198.266H721.18L729.716 160.815H678.223L688.135 118.135H735.774Z" fill="currentColor"/>
<path d="M847.847 128.598L837.384 3.85774H786.992L742.106 198.266H787.818L815.355 74.9005L825.267 198.266H876.76L921.646 3.85774H875.936L847.847 128.598Z" fill="currentColor"/>
<path d="M930.182 41.0318H971.487L935.137 198.266H989.936L1026.29 41.0318H1067.59L1076.13 3.85774H938.718L930.182 41.0318Z" fill="currentColor"/>
<path d="M1244.1 60.8586L1225.1 143.192C1223.08 151.639 1220.87 156.869 1218.49 158.888C1216.1 160.909 1210.41 161.916 1201.42 161.916H1193.16L1220.97 41.3053H1229.23C1239.87 41.3053 1245.2 45.256 1245.2 53.1467C1245.2 54.9844 1244.83 57.5532 1244.1 60.8586ZM1300.27 46.2625C1300.27 17.9944 1281.45 3.85774 1243.82 3.85774H1174.7L1129.82 198.266H1199.21C1211.51 198.266 1221.38 197.762 1228.81 196.752C1236.25 195.744 1243.04 193.907 1249.19 191.243C1255.34 188.585 1260.34 184.406 1264.2 178.714C1268.06 173.026 1271.5 166.186 1274.53 158.198C1277.55 150.213 1280.63 139.613 1283.75 126.395L1296.14 72.9734C1298.9 61.0427 1300.27 52.1402 1300.27 46.2625Z" fill="currentColor"/>
<path d="M231.116 94.6378C209.267 94.6378 192.704 99.0005 181.415 107.717C170.122 116.439 162.089 131.17 157.318 151.914L146.585 198.301H201.552L211.841 153.567C213.859 144.94 216.014 139.108 218.313 136.08C220.605 133.05 224.414 131.537 229.739 131.537C238.182 131.537 242.408 135.115 242.408 142.275C242.408 144.113 242.036 146.501 241.305 149.436L230.084 198.301H285.348L292.525 167.334C295.278 155.037 296.654 145.675 296.654 139.248C296.654 109.507 274.806 94.6378 231.116 94.6378Z" fill="currentColor"/>
<path d="M322.064 33.4375C323.44 28.8521 325.045 22.699 326.882 14.9872L329.516 3.62278H274.302L269.606 24.0755C267.953 31.4192 265.887 36.1483 263.409 38.2578C260.93 40.369 257.488 41.4229 253.083 41.4229C249.043 41.4229 245.876 40.4602 243.585 38.5313C241.286 36.6042 240.141 33.9881 240.141 30.6827C240.141 28.6662 240.507 26.1885 241.244 23.2479L245.759 3.62278H190.764L190.299 5.62525C187.546 17.3772 186.17 27.0144 186.17 34.5404C186.17 42.8011 188.097 49.9167 191.951 55.8804C195.807 61.8475 201.04 66.3925 207.648 69.5103C214.256 72.6332 221.184 74.8812 228.438 76.2577C235.689 77.6342 243.446 78.3215 251.707 78.3215C263.087 78.3215 273.047 76.9889 281.584 74.3288C290.12 71.6705 296.819 68.5458 301.685 64.9669C306.547 61.3863 310.815 56.3889 314.49 49.9606C318.161 43.5376 320.686 38.0281 322.064 33.4375Z" fill="currentColor"/>
<path d="M1368.76 94.6378C1346.91 94.6378 1330.35 99.0005 1319.06 107.717C1307.77 116.439 1299.73 131.17 1294.96 151.914L1284.23 198.301H1339.19L1349.48 153.567C1351.5 144.94 1353.66 139.108 1355.96 136.08C1358.25 133.05 1362.06 131.537 1367.38 131.537C1375.83 131.537 1380.05 135.115 1380.05 142.275C1380.05 144.113 1379.68 146.501 1378.95 149.436L1367.73 198.301H1422.99L1430.16 167.334C1432.91 155.037 1434.3 145.675 1434.3 139.248C1434.3 109.507 1412.45 94.6378 1368.76 94.6378Z" fill="currentColor"/>
<path d="M1411.94 3.62278L1407.24 24.0755C1405.59 31.4192 1403.52 36.1483 1401.05 38.2578C1398.58 40.369 1395.13 41.4229 1390.72 41.4229C1386.69 41.4229 1383.52 40.4602 1381.23 38.5313C1378.93 36.6042 1377.78 33.9881 1377.78 30.6827C1377.78 28.6662 1378.15 26.1885 1378.89 23.2479L1383.4 3.62278H1328.41L1327.94 5.62525C1325.19 17.3772 1323.81 27.0144 1323.81 34.5404C1323.81 42.8011 1325.74 49.9167 1329.59 55.8804C1333.45 61.8475 1338.68 66.3925 1345.29 69.5103C1351.9 72.6332 1358.83 74.8812 1366.08 76.2577C1373.33 77.6342 1381.09 78.3215 1389.35 78.3215C1400.74 78.3215 1410.7 76.9889 1419.22 74.3288C1427.76 71.6705 1434.46 68.5458 1439.33 64.9669C1444.19 61.3863 1448.47 56.3889 1452.13 49.9606C1455.8 43.5376 1458.32 38.0281 1459.71 33.4375C1461.07 28.8521 1462.69 22.699 1464.53 14.9872L1467.16 3.62278H1411.94Z" fill="currentColor"/>
</svg>
