<svg width="50" height="50" viewBox="0 0 50 50" fill="currentColor" xmlns="http://www.w3.org/2000/svg">
<path d="M43.7501 15.625C41.0574 15.622 38.4759 14.5509 36.5719 12.6469C34.6679 10.7429 33.5969 8.16142 33.5938 5.46875C33.5938 5.26155 33.5115 5.06284 33.365 4.91633C33.2185 4.76982 33.0198 4.68751 32.8126 4.6875H25.0001C24.7929 4.68751 24.5942 4.76982 24.4477 4.91633C24.3012 5.06284 24.2188 5.26155 24.2188 5.46875V30.4688C24.2186 31.3076 23.9932 32.131 23.5663 32.853C23.1394 33.5751 22.5265 34.1693 21.7917 34.5738C21.0568 34.9783 20.2269 35.1782 19.3885 35.1526C18.5501 35.1271 17.7339 34.877 17.025 34.4285C16.3162 33.98 15.7407 33.3495 15.3585 32.6028C14.9764 31.856 14.8016 31.0205 14.8525 30.1832C14.9033 29.3459 15.1779 28.5376 15.6476 27.8426C16.1172 27.1476 16.7648 26.5914 17.5227 26.232C17.6562 26.1686 17.7689 26.0686 17.8479 25.9437C17.9268 25.8188 17.9687 25.6741 17.9687 25.5263L17.9688 17.3937C17.9689 17.2795 17.9438 17.1667 17.8955 17.0632C17.8472 16.9597 17.7768 16.8681 17.6893 16.7948C17.6018 16.7214 17.4992 16.6682 17.3889 16.6388C17.2785 16.6094 17.1631 16.6045 17.0506 16.6245C14.4172 17.0963 11.9729 18.3094 10.0046 20.1215C8.03641 21.9337 6.62592 24.2696 5.93869 26.8552C5.25146 29.4409 5.31601 32.1689 6.12478 34.7191C6.93354 37.2693 8.45295 39.5359 10.5047 41.2529C12.5564 42.9699 15.0554 44.0661 17.7082 44.4127C20.3611 44.7593 23.0577 44.3421 25.4818 43.2099C27.9058 42.0777 29.9566 40.2776 31.3935 38.0208C32.8303 35.764 33.5936 33.1441 33.5938 30.4688L33.5937 22.1556C36.6513 24.0239 40.1668 25.0085 43.7501 25C43.9573 25 44.156 24.9177 44.3025 24.7712C44.449 24.6247 44.5313 24.4259 44.5313 24.2188V16.4062C44.5313 16.1991 44.449 16.0003 44.3025 15.8538C44.156 15.7073 43.9573 15.625 43.7501 15.625ZM42.9688 23.4209C39.4764 23.2779 36.1031 22.1111 33.2687 20.0656C33.152 19.9816 33.0144 19.9315 32.871 19.9208C32.7277 19.91 32.5841 19.939 32.4562 20.0046C32.3283 20.0701 32.2209 20.1697 32.1459 20.2924C32.0709 20.415 32.0313 20.556 32.0312 20.6998L32.0313 30.4688C32.0306 32.8065 31.3743 35.0972 30.137 37.0807C28.8997 39.0642 27.131 40.6609 25.0317 41.6896C22.9325 42.7183 20.5868 43.1377 18.2612 42.9001C15.9355 42.6626 13.7231 41.7776 11.8751 40.3458C10.0272 38.9139 8.61783 36.9925 7.8071 34.7998C6.99637 32.6072 6.81676 30.2311 7.28868 27.9415C7.76061 25.6518 8.86514 23.5404 10.4768 21.8471C12.0885 20.1537 14.1428 18.9462 16.4063 18.3618L16.4062 25.0553C15.456 25.6038 14.667 26.3928 14.1183 27.3429C13.5697 28.2931 13.2808 29.3709 13.2807 30.4681C13.2807 31.5652 13.5694 32.6431 14.1179 33.5933C14.6664 34.5435 15.4554 35.3326 16.4056 35.8812C17.3557 36.4298 18.4335 36.7187 19.5307 36.7188C20.6279 36.7188 21.7057 36.4301 22.6559 35.8815C23.6061 35.333 24.3952 34.544 24.9438 33.5939C25.4924 32.6437 25.7813 31.5659 25.7813 30.4688V6.25H32.0571C32.2502 9.08036 33.4618 11.745 35.4678 13.751C37.4738 15.7571 40.1385 16.9687 42.9688 17.1618V23.4209Z" fill="currentColor" stroke="currentColor"/>
</svg>
