<svg width="49" height="49" viewBox="0 0 49 49" fill="none" xmlns="http://www.w3.org/2000/svg">
<g clip-path="url(#clip0_640_82)">
<path d="M46.2272 39.0648H41.0493C39.4229 39.0648 38.5817 38.1295 37.0547 36.4309C36.4244 35.7296 35.6396 34.8566 34.6043 33.8213C31.2976 30.6329 30.1912 30.6329 29.8276 30.6329C29.1521 30.6329 29.0111 30.6329 29.0111 31.8699V36.5132C29.0111 38.3973 27.9021 39.0648 24.7745 39.0648C18.8409 39.0648 12.7723 35.437 8.53944 29.3598C1.74315 19.8318 0.270508 13.05 0.270508 11.8823C0.270508 10.969 0.671745 9.87988 2.58327 9.87988H7.7617C9.43711 9.87988 10.0664 10.7507 10.587 12.255C13.3032 20.1663 17.4328 25.718 18.6365 25.718C18.8538 25.718 19.0593 25.718 19.0593 24.2803V16.6552C18.9506 14.6877 18.2794 13.8562 17.7399 13.1887C17.3602 12.7187 17.0015 12.2749 17.0015 11.608C17.0015 10.7582 17.6958 9.87988 18.857 9.87988H26.9942C28.8025 9.87988 29.0117 11.2729 29.0117 12.3212V22.5802C29.0117 23.2837 29.2408 23.5074 29.2973 23.5252C29.6856 23.5236 30.0933 23.309 31.3121 22.0897C34.9151 18.0617 37.5323 11.7419 37.5587 11.6785C38.0713 10.4828 38.9953 9.88042 40.3087 9.88042H45.4872C46.3907 9.88042 47.0329 10.1273 47.396 10.6151C47.7386 11.0755 47.7983 11.6951 47.574 12.4567C46.8786 15.5628 40.7836 24.1717 40.5244 24.5374C40.0457 25.3049 39.943 25.47 40.5104 26.1994C40.767 26.5576 41.3516 27.1304 41.9712 27.7371C42.657 28.4089 43.4347 29.171 44.0629 29.9132C46.7619 32.9489 48.1006 34.8211 48.5325 36.1642C48.8433 37.2291 48.5879 37.8783 48.3184 38.2365C48.0344 38.6141 47.4412 39.0648 46.2272 39.0648ZM29.8281 29.5577C30.714 29.5577 32.1441 29.9552 35.3583 33.0543C36.4206 34.1166 37.2161 35.0013 37.855 35.7118C39.4105 37.4421 39.9543 37.9891 41.0493 37.9891H46.2272C46.8275 37.9891 47.2648 37.8471 47.4573 37.5905C47.6778 37.2963 47.6041 36.823 47.5036 36.4788C47.0233 34.9857 44.9783 32.5611 43.2502 30.6173C42.6462 29.9041 41.8879 29.1608 41.2188 28.5051C40.5357 27.8366 39.9467 27.2595 39.6482 26.8416C38.7022 25.626 39.0093 24.9338 39.6299 23.9404C39.7101 23.8258 45.9008 15.0825 46.5284 12.2066L46.5387 12.1668C46.6269 11.8732 46.6973 11.4768 46.5338 11.2568C46.3886 11.0626 46.018 10.9556 45.4882 10.9556H40.3098C39.4309 10.9556 38.8888 11.3068 38.551 12.0942C38.4456 12.3518 35.8424 18.6383 32.0936 22.8287C30.8646 24.0598 30.1745 24.5993 29.2795 24.5993C28.6325 24.5993 27.9365 23.9673 27.9365 22.5807V12.3212C27.9365 11.0476 27.581 10.9556 26.9947 10.9556H18.8576C18.3197 10.9556 18.0777 11.3369 18.0777 11.608C18.0777 11.8823 18.2396 12.0953 18.5768 12.5127C19.1459 13.2173 20.0059 14.2817 20.1344 16.6256L20.135 24.2798C20.135 25.5518 20.0193 26.7932 18.6365 26.7932C16.235 26.7932 11.8687 19.303 9.56996 12.6057C9.11064 11.2799 8.75565 10.9556 7.7617 10.9556H2.58381C1.34675 10.9556 1.34675 11.4698 1.34675 11.8823C1.34675 12.794 2.75 19.3907 9.4199 28.7402C13.4549 34.5334 19.1937 37.9891 24.7756 37.9891C27.9365 37.9891 27.9365 37.3377 27.9365 36.5132V31.8699C27.936 30.4054 28.2458 29.5577 29.8281 29.5577Z" fill="currentColor" stroke="currentColor" stroke-width="2"/>
</g>
<defs>
<clipPath id="clip0_640_82">
<rect width="49" height="49" fill="currentColor"/>
</clipPath>
</defs>
</svg>
